# xmcd CD database file
#
# Track frame offsets:
#	150
#	16313
#	29793
#	46759
#	61599
#	75140
#	82682
#	104342
#	119423
#	131007
#	139444
#	152260
#	169355
#	179664
#	196107
#	210458
#	217676
#
# Disc length: 3178 seconds
#
# Revision: 0
# Processed by: cddbd v1.5.2PL0 Copyright (c) Steve Scherf et al.
# Submitted via: CDex 2.02
#
DISCID=d60c6811
DTITLE=Various Artist - I lay Down My Old Guitar
DYEAR=2003
DGENRE=Blues
TTITLE0=Lay Down My Old Guitar-Orville Johnson
TTITLE1=Too Tight Rag-Pat Donahue
TTITLE2=Mississippi Blues-Roy Book Binder
TTITLE3=Midnight Hour Blues-Ann Rabson
TTITLE4=Red River Blues-Thomas David Corlett
TTITLE5=Don't Let Your Deal Go Down-Terry Robb
TTITLE6=So Sweet-John Cephas and Phil Wiggins
TTITLE7=That Will Never Happen No More-Ari Eisinger
TTITLE8=When You Left-John Miller
TTITLE9=West Coast Blues-Mary Flower
TTITLE10=Goin' Down to Gergia On a Horn-W. B. Reid
TTITLE11=Georgia Bound-Mick Knight
TTITLE12=Come On Over to My House-Lauren Sheehan
TTITLE13=Bootlegger's Blues-Ragtime Rick Blaufeld
TTITLE14=Boats Up the River-Thom Davis
TTITLE15=John Henry-Corey Harris
TTITLE16=Just Because-Saffire and the Uppity Blues Women
EXTD=YEAR: 2003
EXTT0=
EXTT1=
EXTT2=
EXTT3=
EXTT4=
EXTT5=
EXTT6=
EXTT7=
EXTT8=
EXTT9=
EXTT10=
EXTT11=
EXTT12=
EXTT13=
EXTT14=
EXTT15=
EXTT16=
PLAYORDER=
